<?xml version="1.0" encoding="UTF-8" standalone="no"?>
<!-- Generator: Adobe Illustrator 19.1.0, SVG Export Plug-In . SVG Version: 6.00 Build 0)  -->

<svg
   xmlns:dc="http://purl.org/dc/elements/1.1/"
   xmlns:cc="http://creativecommons.org/ns#"
   xmlns:rdf="http://www.w3.org/1999/02/22-rdf-syntax-ns#"
   xmlns:svg="http://www.w3.org/2000/svg"
   xmlns="http://www.w3.org/2000/svg"
   xmlns:sodipodi="http://sodipodi.sourceforge.net/DTD/sodipodi-0.dtd"
   xmlns:inkscape="http://www.inkscape.org/namespaces/inkscape"
   version="1.1"
   id="Capa_1"
   x="0px"
   y="0px"
   viewBox="0 0 486 486"
   style="enable-background:new 0 0 486 486;"
   xml:space="preserve"
   sodipodi:docname="light-bulb.svg"
   inkscape:version="0.92.4 (5da689c313, 2019-01-14)"><metadata
   id="metadata40"><rdf:RDF><cc:Work
       rdf:about=""><dc:format>image/svg+xml</dc:format><dc:type
         rdf:resource="http://purl.org/dc/dcmitype/StillImage" /></cc:Work></rdf:RDF></metadata><defs
   id="defs38" /><sodipodi:namedview
   pagecolor="#ffffff"
   bordercolor="#666666"
   borderopacity="1"
   objecttolerance="10"
   gridtolerance="10"
   guidetolerance="10"
   inkscape:pageopacity="0"
   inkscape:pageshadow="2"
   inkscape:window-width="1366"
   inkscape:window-height="704"
   id="namedview36"
   showgrid="false"
   inkscape:zoom="0.48559671"
   inkscape:cx="351.40867"
   inkscape:cy="243"
   inkscape:window-x="0"
   inkscape:window-y="27"
   inkscape:window-maximized="1"
   inkscape:current-layer="g3" />
<g
   id="g3">
	<path
   id="XMLID_49_"
   d="m 296.05254,417.00085 v 13.5983 c 0,10.82119 -7.94831,19.82289 -18.29068,21.35509 l -3.35169,12.35339 c -1.81949,6.70339 -7.85254,11.39576 -14.84322,11.39576 h -33.22966 c -6.99068,0 -13.02373,-4.69237 -14.84322,-11.39576 l -3.25593,-12.35339 C 197.8,450.32627 189.85169,441.42034 189.85169,430.50339 v -13.59831 c 0,-7.27796 5.84153,-13.11949 13.1195,-13.11949 h 79.96186 c 7.27797,0.0958 13.11949,5.93729 13.11949,13.21526 z m 61.57542,-183.28983 c 0,30.93135 -12.25762,58.98983 -32.17627,79.57881 -15.1305,15.70509 -24.8983,35.71949 -28.15423,57.07458 -1.43644,9.19322 -9.38475,15.99237 -18.7695,15.99237 h -71.15169 c -9.28898,0 -17.33305,-6.70339 -18.67373,-15.89661 -3.35169,-21.35509 -13.21525,-41.65678 -28.34576,-57.2661 -19.53559,-20.3017 -31.69746,-47.88136 -31.98475,-78.23814 -0.67033,-63.77797 50.0839,-115.39407 113.86187,-115.87288 63.6822,-0.47881 115.39406,51.04153 115.39406,114.62797 z m -101.7,-69.42797 c 0,-7.08644 -5.74575,-12.92797 -12.92796,-12.92797 -45.58305,0 -82.73898,37.06017 -82.73898,82.73899 0,7.08644 5.74576,12.92797 12.92796,12.92797 7.08644,0 12.92797,-5.74577 12.92797,-12.92797 0,-31.41017 25.56864,-56.88305 56.88305,-56.88305 7.18221,0 12.92796,-5.74577 12.92796,-12.92797 z M 243,81.448305 c 7.08644,0 12.92796,-5.745763 12.92796,-12.927966 V 23.224577 c 0,-7.086441 -5.74575,-12.927967 -12.92796,-12.927967 -7.18221,0 -12.92796,5.745763 -12.92796,12.927967 v 45.295762 c 0,7.182203 5.84152,12.927966 12.92796,12.927966 z M 90.83305,233.61525 c 0,-7.08644 -5.745762,-12.92796 -12.927965,-12.92796 H 32.609322 c -7.086441,0 -12.927966,5.74576 -12.927966,12.92796 0,7.08644 5.745762,12.92797 12.927966,12.92797 h 45.295763 c 7.182203,0 12.927965,-5.74576 12.927965,-12.92797 z m 362.55763,-12.92796 h -45.29576 c -7.08644,0 -12.92797,5.74576 -12.92797,12.92796 0,7.08644 5.74576,12.92797 12.92797,12.92797 h 45.29576 c 7.08644,0 12.92797,-5.74576 12.92797,-12.92797 0,-7.08644 -5.74577,-12.92796 -12.92797,-12.92796 z M 117.1678,341.25254 85.087288,373.33305 c -5.075424,5.07543 -5.075424,13.21526 0,18.29068 2.489831,2.48983 5.841526,3.73475 9.097458,3.73475 3.255932,0 6.607624,-1.24492 9.097454,-3.73475 l 32.08051,-32.08051 c 5.07543,-5.07542 5.07543,-13.21526 0,-18.29068 -4.97966,-5.07542 -13.21525,-5.07542 -18.19491,0 z M 359.73475,129.80847 c 3.25593,0 6.60762,-1.24491 9.09746,-3.73474 l 32.0805,-32.080509 c 5.07543,-5.075425 5.07543,-13.215255 0,-18.290679 -5.07542,-5.075423 -13.21525,-5.075423 -18.29067,0 l -32.08052,32.080508 c -5.07542,5.07542 -5.07542,13.21525 0,18.29068 2.5856,2.48983 5.84153,3.73474 9.19323,3.73474 z m -242.56695,-3.8305 c 2.48983,2.48983 5.84152,3.73474 9.09745,3.73474 3.25594,0 6.60763,-1.24491 9.09746,-3.73474 5.07543,-5.07543 5.07543,-13.21526 0,-18.29068 L 103.2822,75.60678 c -5.075421,-5.075424 -13.215251,-5.075424 -18.290675,0 -5.075423,5.075424 -5.075423,13.215254 0,18.290678 z m 251.66441,215.27457 c -5.07543,-5.07542 -13.21526,-5.07542 -18.29069,0 -5.07542,5.07542 -5.07542,13.21526 0,18.29068 l 32.08052,32.08051 c 2.48982,2.48983 5.84152,3.73475 9.09745,3.73475 3.25593,0 6.60763,-1.24492 9.09746,-3.73475 5.07542,-5.07542 5.07542,-13.21525 0,-18.29068 z"
   style="fill:#3abaf4;stroke-width:0.95762718;opacity:1;fill-opacity:1"
   inkscape:connector-curvature="0" />
</g>
<g
   id="g5">
</g>
<g
   id="g7">
</g>
<g
   id="g9">
</g>
<g
   id="g11">
</g>
<g
   id="g13">
</g>
<g
   id="g15">
</g>
<g
   id="g17">
</g>
<g
   id="g19">
</g>
<g
   id="g21">
</g>
<g
   id="g23">
</g>
<g
   id="g25">
</g>
<g
   id="g27">
</g>
<g
   id="g29">
</g>
<g
   id="g31">
</g>
<g
   id="g33">
</g>
</svg>